<?xml version="1.0" encoding="UTF-8" standalone="no"?>
<!DOCTYPE svg PUBLIC "-//W3C//DTD SVG 1.1//EN" "http://www.w3.org/Graphics/SVG/1.1/DTD/svg11.dtd">
<svg width="100%" height="100%" viewBox="0 0 60 60" version="1.1" xmlns="http://www.w3.org/2000/svg" xmlns:xlink="http://www.w3.org/1999/xlink" xml:space="preserve" xmlns:serif="http://www.serif.com/" style="fill-rule:evenodd;clip-rule:evenodd;stroke-linejoin:round;stroke-miterlimit:2;">
    <g transform="matrix(1,0,0,1,-60,-60)">
        <g id="Artboard1" transform="matrix(1,0,0,1,60,60)">
            <rect x="0" y="0" width="60" height="60" style="fill:none;"/>
            <g transform="matrix(3.00658,0,0,3.282,-13.3101,-212.879)">
                <path d="M11.097,67.919C10.628,67.648 10.034,67.632 9.549,67.878C9.063,68.124 8.761,68.592 8.761,69.1C8.761,71.836 8.761,76.171 8.761,78.907C8.761,79.415 9.063,79.883 9.549,80.129C10.034,80.374 10.628,80.359 11.097,80.088C13.522,78.687 17.278,76.519 19.59,75.184C20.033,74.929 20.301,74.483 20.301,74.003C20.301,73.524 20.033,73.078 19.59,72.823C17.278,71.488 13.522,69.319 11.097,67.919Z" style="fill:rgb(69,69,69);"/>
            </g>
        </g>
    </g>
</svg>
