<?xml version="1.0" encoding="UTF-8" standalone="no"?>
<!DOCTYPE svg PUBLIC "-//W3C//DTD SVG 1.1//EN" "http://www.w3.org/Graphics/SVG/1.1/DTD/svg11.dtd">
<svg width="100%" height="100%" viewBox="0 0 60 60" version="1.1" xmlns="http://www.w3.org/2000/svg" xmlns:xlink="http://www.w3.org/1999/xlink" xml:space="preserve" xmlns:serif="http://www.serif.com/" style="fill-rule:evenodd;clip-rule:evenodd;stroke-linejoin:round;stroke-miterlimit:2;">
    <g transform="matrix(1,0,0,1,-60,0)">
        <g id="Artboard1" transform="matrix(1,0,0,1,60,0)">
            <rect x="0" y="0" width="60" height="60" style="fill:none;"/>
            <g transform="matrix(1,0,0,1,-1679.12,-3263.12)">
                <path d="M1703.47,3277.97C1703.47,3274.84 1700.93,3272.31 1697.81,3272.31C1694.69,3272.31 1692.15,3274.84 1692.15,3277.97L1692.15,3308.27C1692.15,3311.39 1694.69,3313.92 1697.81,3313.92C1700.93,3313.92 1703.47,3311.39 1703.47,3308.27L1703.47,3277.97Z" style="fill:rgb(69,69,69);"/>
            </g>
            <g transform="matrix(1,0,0,1,-1656.5,-3263.12)">
                <path d="M1703.47,3277.97C1703.47,3274.84 1700.93,3272.31 1697.81,3272.31C1694.69,3272.31 1692.15,3274.84 1692.15,3277.97L1692.15,3308.27C1692.15,3311.39 1694.69,3313.92 1697.81,3313.92C1700.93,3313.92 1703.47,3311.39 1703.47,3308.27L1703.47,3277.97Z" style="fill:rgb(69,69,69);"/>
            </g>
        </g>
    </g>
</svg>
