<?xml version="1.0" encoding="UTF-8" standalone="no"?>
<!DOCTYPE svg PUBLIC "-//W3C//DTD SVG 1.1//EN" "http://www.w3.org/Graphics/SVG/1.1/DTD/svg11.dtd">
<svg width="100%" height="100%" viewBox="0 0 60 60" version="1.1" xmlns="http://www.w3.org/2000/svg" xmlns:xlink="http://www.w3.org/1999/xlink" xml:space="preserve" xmlns:serif="http://www.serif.com/" style="fill-rule:evenodd;clip-rule:evenodd;stroke-linejoin:round;stroke-miterlimit:2;">
    <g transform="matrix(1,0,0,1,-60,-120)">
        <g id="Artboard1" transform="matrix(1,0,0,1,60,120)">
            <rect x="0" y="0" width="60" height="60" style="fill:none;"/>
            <g transform="matrix(0.811223,0,0,0.811223,8.33174,-91.6834)">
                <path d="M34.606,141.599C32.518,139.673 29.759,138.569 26.853,138.569C20.544,138.569 15.422,143.691 15.422,150C15.422,156.309 20.544,161.431 26.853,161.431C30.458,161.431 33.779,159.739 35.883,156.964C37.158,155.346 39.335,154.743 41.26,155.474C41.262,155.475 41.264,155.476 41.257,155.503C42.656,156.034 43.717,157.202 44.112,158.646C44.507,160.089 44.189,161.635 43.256,162.805C39.381,167.767 33.373,170.808 26.853,170.808C15.369,170.808 6.046,161.484 6.046,150C6.046,138.516 15.369,129.192 26.853,129.192C33.116,129.192 39.004,132.009 42.931,136.792L45.749,135.165C46.12,134.951 46.583,134.976 46.929,135.228C47.276,135.481 47.441,135.914 47.351,136.333C46.631,139.679 45.342,145.665 44.738,148.471C44.654,148.862 44.409,149.199 44.062,149.399C43.716,149.599 43.301,149.643 42.92,149.52C40.189,148.641 34.36,146.764 31.102,145.714C30.694,145.583 30.402,145.223 30.356,144.797C30.311,144.37 30.521,143.957 30.892,143.743L34.606,141.599Z" style="fill:rgb(69,69,69);"/>
            </g>
        </g>
    </g>
</svg>
