<?xml version="1.0" encoding="UTF-8" standalone="no"?>
<!DOCTYPE svg PUBLIC "-//W3C//DTD SVG 1.1//EN" "http://www.w3.org/Graphics/SVG/1.1/DTD/svg11.dtd">
<svg width="100%" height="100%" viewBox="0 0 60 60" version="1.1" xmlns="http://www.w3.org/2000/svg" xmlns:xlink="http://www.w3.org/1999/xlink" xml:space="preserve" xmlns:serif="http://www.serif.com/" style="fill-rule:evenodd;clip-rule:evenodd;stroke-linejoin:round;stroke-miterlimit:2;">
    <g>
        <g id="Artboard1">
            <rect x="0" y="0" width="60" height="60" style="fill:none;"/>
            <g id="O" transform="matrix(0.613324,0,-2.77556e-16,0.756207,-69.9507,-13.3072)">
                <rect x="118.135" y="21.997" width="89.661" height="70.544" style="fill:none;"/>
                <g transform="matrix(1.1198,-9.39151e-16,-1.72742e-16,0.880697,-21.2752,6.18767)">
                    <path d="M179.571,26.526L183.553,28.825L198.594,54.877L198.594,59.475L183.553,85.526L179.571,87.825L149.489,87.825L145.507,85.526L130.466,59.475L130.466,54.877L145.507,28.825L149.489,26.526L179.571,26.526ZM151.19,34.071L137.851,57.176L151.19,80.281L177.87,80.281L191.209,57.176L177.87,34.071L151.19,34.071Z" style="fill:rgb(181,181,181);"/>
                </g>
                <g transform="matrix(1.1198,-9.39151e-16,-1.72742e-16,0.880697,-21.2752,6.18767)">
                    <path d="M179.571,74.101C185.064,74.101 189.523,78.56 189.523,84.053C189.523,89.546 185.064,94.005 179.571,94.005C174.078,94.005 169.618,89.546 169.618,84.053C169.618,78.56 174.078,74.101 179.571,74.101ZM149.489,74.101C154.982,74.101 159.442,78.56 159.442,84.053C159.442,89.546 154.982,94.005 149.489,94.005C143.996,94.005 139.537,89.546 139.537,84.053C139.537,78.56 143.996,74.101 149.489,74.101ZM194.612,48.049C200.105,48.049 204.564,52.509 204.564,58.001C204.564,63.494 200.105,67.954 194.612,67.954C189.119,67.954 184.659,63.494 184.659,58.001C184.659,52.509 189.119,48.049 194.612,48.049ZM134.448,48.049C139.941,48.049 144.401,52.509 144.401,58.001C144.401,63.494 139.941,67.954 134.448,67.954C128.955,67.954 124.496,63.494 124.496,58.001C124.496,52.509 128.955,48.049 134.448,48.049ZM179.571,21.997C185.064,21.997 189.523,26.457 189.523,31.95C189.523,37.443 185.064,41.902 179.571,41.902C174.078,41.902 169.618,37.443 169.618,31.95C169.618,26.457 174.078,21.997 179.571,21.997ZM149.489,21.997C154.982,21.997 159.442,26.457 159.442,31.95C159.442,37.443 154.982,41.902 149.489,41.902C143.996,41.902 139.537,37.443 139.537,31.95C139.537,26.457 143.996,21.997 149.489,21.997Z" style="fill:rgb(0,102,255);"/>
                </g>
            </g>
        </g>
    </g>
</svg>
