<?xml version="1.0" encoding="UTF-8" standalone="no"?>
<!DOCTYPE svg PUBLIC "-//W3C//DTD SVG 1.1//EN" "http://www.w3.org/Graphics/SVG/1.1/DTD/svg11.dtd">
<svg width="100%" height="100%" viewBox="0 0 500 116" version="1.1" xmlns="http://www.w3.org/2000/svg" xmlns:xlink="http://www.w3.org/1999/xlink" xml:space="preserve" xmlns:serif="http://www.serif.com/" style="fill-rule:evenodd;clip-rule:evenodd;stroke-linejoin:round;stroke-miterlimit:2;">
    <g id="Artboard1" transform="matrix(1,0,0,1.15924,0,0)">
        <rect x="-0" y="-0" width="585" height="100.066" style="fill:none;"/>
        <rect x="0" y="0" width="500" height="100.066" style="fill:none;"/>
        <g>
            <g transform="matrix(1,0,0,0.862635,-2.27374e-13,0)">
                <path d="M42.923,1.606L85.372,92.541L75.805,92.541L61.866,63.381L23.687,63.381L9.881,92.541L0,92.541L42.923,1.606ZM488.854,26.991L497.289,26.991L497.289,92.541L488.854,92.541L488.854,26.991ZM105.073,2.651L113.508,2.651L113.508,26.991L126.883,26.991L126.883,34.281L113.508,34.281L113.508,92.541L105.073,92.541L105.073,34.281L93.565,34.281L93.565,26.991L105.073,26.991L105.073,2.651ZM414.869,26.991L423.304,26.991L423.304,38.74C426.678,34.241 430.413,30.877 434.51,28.648C438.607,26.419 443.065,25.304 447.885,25.304C452.785,25.304 457.133,26.549 460.929,29.04C464.725,31.53 467.526,34.884 469.334,39.101C471.141,43.318 472.045,49.886 472.045,58.802L472.045,92.541L463.61,92.541L463.61,61.272C463.61,53.721 463.297,48.681 462.672,46.15C461.694,41.812 459.82,38.549 457.048,36.36C454.276,34.171 450.661,33.076 446.202,33.076C441.1,33.076 436.53,34.763 432.493,38.137C428.456,41.511 425.794,45.688 424.509,50.669C423.706,53.922 423.304,59.867 423.304,68.502L423.304,92.541L414.869,92.541L414.869,26.991ZM207.796,26.991L216.231,26.991L216.231,38.318C219.166,34.141 222.182,31.088 225.278,29.16C229.541,26.59 234.025,25.304 238.73,25.304C241.906,25.304 244.922,25.927 247.777,27.172C250.632,28.417 252.965,30.074 254.774,32.142C256.584,34.211 258.152,37.173 259.479,41.029C262.283,35.888 265.79,31.982 269.997,29.311C274.205,26.64 278.733,25.304 283.581,25.304C288.109,25.304 292.106,26.449 295.572,28.738C299.038,31.028 301.613,34.221 303.296,38.318C304.979,42.415 305.82,48.56 305.82,56.754L305.82,92.541L297.204,92.541L297.204,56.754C297.204,49.725 296.704,44.895 295.703,42.264C294.703,39.633 292.991,37.515 290.569,35.908C288.147,34.301 285.255,33.498 281.892,33.498C277.809,33.498 274.076,34.703 270.693,37.113C267.31,39.523 264.838,42.736 263.277,46.753C261.716,50.769 260.935,57.477 260.935,66.876L260.935,92.541L252.5,92.541L252.5,58.983C252.5,51.07 252.008,45.698 251.024,42.867C250.04,40.035 248.323,37.766 245.873,36.059C243.423,34.352 240.511,33.498 237.137,33.498C233.241,33.498 229.596,34.673 226.202,37.023C222.808,39.372 220.298,42.535 218.671,46.512C217.044,50.488 216.231,56.573 216.231,64.767L216.231,92.541L207.796,92.541L207.796,26.991ZM360.111,1.606L402.518,92.541L392.952,92.541L379.013,63.381L340.834,63.381L327.027,92.541L317.147,92.541L360.111,1.606ZM42.923,22.746L27.737,54.826L58.036,54.826L42.923,22.746ZM360.07,22.746L344.883,54.826L375.183,54.826L360.07,22.746ZM493.041,0C494.961,0 496.601,0.683 497.961,2.048C499.32,3.414 500,5.061 500,6.989C500,8.877 499.32,10.503 497.961,11.869C496.601,13.235 494.961,13.917 493.041,13.917C491.162,13.917 489.542,13.235 488.182,11.869C486.823,10.503 486.143,8.877 486.143,6.989C486.143,5.061 486.823,3.414 488.182,2.048C489.542,0.683 491.162,0 493.041,0Z" style="fill:rgb(181,181,181);fill-rule:nonzero;"/>
            </g>
            <g id="O" transform="matrix(0.893016,0,0,0.979491,18.9991,-6.06077)">
                <rect x="118.135" y="21.997" width="89.661" height="70.544" style="fill:none;"/>
                <g transform="matrix(1.1198,-9.39151e-16,-1.72742e-16,0.880697,-21.2752,6.18767)">
                    <path d="M179.571,26.526L183.553,28.825L198.594,54.877L198.594,59.475L183.553,85.526L179.571,87.825L149.489,87.825L145.507,85.526L130.466,59.475L130.466,54.877L145.507,28.825L149.489,26.526L179.571,26.526ZM151.19,34.071L137.851,57.176L151.19,80.281L177.87,80.281L191.209,57.176L177.87,34.071L151.19,34.071Z" style="fill:rgb(181,181,181);"/>
                </g>
                <g transform="matrix(1.1198,-9.39151e-16,-1.72742e-16,0.880697,-21.2752,6.18767)">
                    <path d="M179.571,74.101C185.064,74.101 189.523,78.56 189.523,84.053C189.523,89.546 185.064,94.005 179.571,94.005C174.078,94.005 169.618,89.546 169.618,84.053C169.618,78.56 174.078,74.101 179.571,74.101ZM149.489,74.101C154.982,74.101 159.442,78.56 159.442,84.053C159.442,89.546 154.982,94.005 149.489,94.005C143.996,94.005 139.537,89.546 139.537,84.053C139.537,78.56 143.996,74.101 149.489,74.101ZM194.612,48.049C200.105,48.049 204.564,52.509 204.564,58.001C204.564,63.494 200.105,67.954 194.612,67.954C189.119,67.954 184.659,63.494 184.659,58.001C184.659,52.509 189.119,48.049 194.612,48.049ZM134.448,48.049C139.941,48.049 144.401,52.509 144.401,58.001C144.401,63.494 139.941,67.954 134.448,67.954C128.955,67.954 124.496,63.494 124.496,58.001C124.496,52.509 128.955,48.049 134.448,48.049ZM179.571,21.997C185.064,21.997 189.523,26.457 189.523,31.95C189.523,37.443 185.064,41.902 179.571,41.902C174.078,41.902 169.618,37.443 169.618,31.95C169.618,26.457 174.078,21.997 179.571,21.997ZM149.489,21.997C154.982,21.997 159.442,26.457 159.442,31.95C159.442,37.443 154.982,41.902 149.489,41.902C143.996,41.902 139.537,37.443 139.537,31.95C139.537,26.457 143.996,21.997 149.489,21.997Z" style="fill:rgb(0,102,255);"/>
                </g>
            </g>
        </g>
    </g>
</svg>
