<?xml version="1.0" standalone="no"?>
<!DOCTYPE svg PUBLIC "-//W3C//DTD SVG 20010904//EN"
 "http://www.w3.org/TR/2001/REC-SVG-20010904/DTD/svg10.dtd">
<svg version="1.0" xmlns="http://www.w3.org/2000/svg"
 width="700.000000pt" height="700.000000pt" viewBox="0 0 700.000000 700.000000"
 preserveAspectRatio="xMidYMid meet">
<metadata>
Created by potrace 1.11, written by Peter Selinger 2001-2013
</metadata>
<g transform="translate(0.000000,700.000000) scale(0.100000,-0.100000)"
fill="#000000" stroke="none">
<path d="M2442 5729 c-145 -22 -269 -87 -372 -195 -175 -184 -219 -443 -115
-672 l25 -54 -203 -341 -203 -341 -85 -12 c-154 -23 -267 -79 -374 -188 -78
-79 -145 -198 -164 -294 -14 -68 -14 -196 0 -264 19 -96 85 -212 163 -291 121
-123 252 -183 424 -195 l97 -7 187 -315 188 -316 -40 -79 c-51 -101 -70 -178
-70 -280 0 -167 60 -306 184 -430 129 -128 271 -188 451 -188 114 -1 177 14
294 70 75 36 108 59 165 116 41 41 85 99 104 135 l33 62 369 0 369 0 33 -62
c113 -214 390 -352 638 -318 160 22 267 75 381 190 120 120 179 261 179 425 0
102 -19 179 -70 280 l-40 79 167 281 c91 154 176 296 189 316 l22 36 95 6
c167 10 301 71 422 193 117 117 175 258 175 424 0 209 -102 396 -278 511 -91
60 -163 87 -271 103 l-85 12 -203 342 -204 342 20 39 c57 111 77 285 46 406
-51 200 -205 370 -399 441 -249 90 -537 18 -708 -177 l-52 -59 -427 0 -426 0
-42 50 c-138 163 -375 251 -589 219z m1411 -801 c40 -126 153 -266 271 -337
105 -63 178 -83 311 -89 66 -2 136 0 156 6 l36 10 172 -290 172 -289 -39 -44
c-51 -59 -108 -166 -128 -246 -21 -81 -22 -216 -1 -296 19 -71 55 -148 100
-210 l30 -42 -168 -283 c-93 -156 -173 -291 -179 -301 -9 -14 -27 -17 -116
-17 -118 0 -192 -15 -287 -60 -121 -56 -233 -161 -289 -272 l-24 -48 -369 0
-369 0 -32 57 c-67 119 -162 207 -282 263 -96 45 -170 60 -288 60 l-105 0 -44
73 c-24 39 -104 175 -179 300 l-135 228 30 42 c78 109 116 225 116 357 0 144
-46 271 -138 385 l-45 55 171 289 172 289 36 -10 c20 -6 90 -8 156 -6 133 6
206 26 311 89 118 71 231 211 271 337 l17 52 336 0 336 0 17 -52z"/>
</g>
</svg>
